<?xml version="1.0" encoding="utf-8"?>
<!-- Generator: Adobe Illustrator 21.1.0, SVG Export Plug-In . SVG Version: 6.00 Build 0)  -->
<svg version="1.1" id="LOGO" xmlns="http://www.w3.org/2000/svg" xmlns:xlink="http://www.w3.org/1999/xlink" x="0px" y="0px"
	 viewBox="0 0 863.9 405" style="enable-background:new 0 0 863.9 405;" xml:space="preserve">
<style type="text/css">
	.st0{enable-background:new    ;}
	.st1{fill:#DAB61D;}
	.st2{fill:#222221;}
</style>
<g class="st0">
	<path class="st1" d="M69,186H37.2c-8,0-15-2.9-20.9-8.8c-6-5.9-9-12.8-9-20.9V54.2c0-7.9,3-14.8,9-20.8c6-6,13-8.9,21-8.9h31.7
		c7.9,0,14.9,3,21.1,9c6.2,6,9.2,13,9.2,20.9v12H69.3V54.3H37.2v101.9h32.2v-13.1h29.9v13.1c0,8-3.1,15-9.2,20.9
		C84,183,76.9,186,69,186z"/>
	<path class="st1" d="M178.1,186l-25.5-65.8h-8.9V186h-30V24.5h60.2c7.9,0,14.9,3,21.1,9c6.1,6,9.2,13,9.2,20.9v35.8
		c0,6.3-2,12-5.9,17.2s-8.7,8.8-14.4,10.9l26.4,67.7H178.1z M174.1,90.3v-36h-30.3v36H174.1z"/>
	<path class="st1" d="M301,186l-7.2-36h-31.4l-7.2,36h-30.5l32.4-161.5h42.1L331.6,186H301z M287.8,120.2l-9.7-48.3l-9.7,48.3H287.8
		z"/>
	<path class="st1" d="M423.5,54.3h-47.5v36h40.9v29.9h-40.9V186h-30V24.5h77.5V54.3z"/>
	<path class="st1" d="M527.4,54.3h-29.7V186h-30V54.3H438V24.5h89.5V54.3z"/>
	<path class="st1" d="M620,186h-78.1V24.5h77.5v29.8h-47.6v36h41v29.9h-41v36H620V186z"/>
	<path class="st1" d="M698.9,186l-25.5-65.8h-8.9V186h-30V24.5h60.2c7.9,0,14.9,3,21.1,9c6.1,6,9.2,13,9.2,20.9v35.8
		c0,6.3-2,12-5.9,17.2s-8.7,8.8-14.4,10.9l26.4,67.7H698.9z M694.8,90.3v-36h-30.3v36H694.8z"/>
	<path class="st1" d="M821.8,186l-7.2-36h-31.4l-7.2,36h-30.5l32.4-161.5h42.1L852.3,186H821.8z M808.6,120.2l-9.7-48.3l-9.7,48.3
		H808.6z"/>
</g>
<g class="st0">
	<path class="st2" d="M15.2,360.8V235.1h24.2c17.9,0,30.5,0.9,37.8,2.7c7.3,1.8,13.7,4.8,19.2,9.1c7.2,5.5,12.7,12.6,16.4,21.3
		c3.7,8.6,5.6,18.6,5.6,29.9c0,11.2-1.9,21.1-5.6,29.7c-3.7,8.6-9.2,15.7-16.5,21.2c-5.5,4.2-11.8,7.3-18.8,9.1
		c-7,1.8-18,2.7-32.9,2.7h-5.4H15.2z M30.3,346.7h9.6c15.5,0,26.2-0.7,32.2-2c6-1.3,10.9-3.6,14.9-6.9c5.2-4.3,9.1-9.8,11.8-16.6
		c2.7-6.8,4-14.5,4-23.3c0-8.8-1.3-16.5-4-23.2c-2.7-6.7-6.6-12.2-11.8-16.5c-4-3.3-9-5.7-15.1-7.1c-6.1-1.4-16.8-2.1-32-2.1h-9.6
		V346.7z"/>
	<path class="st2" d="M139.2,244.4c0-2.7,1-5,2.9-6.9c1.9-1.9,4.3-2.9,7-2.9c2.7,0,5,1,6.9,2.9c1.9,1.9,2.9,4.3,2.9,7
		c0,2.7-0.9,5-2.8,6.9c-1.9,1.9-4.2,2.8-7,2.8s-5.1-0.9-7-2.8C140.1,249.6,139.2,247.2,139.2,244.4z M142.4,360.8v-78.5H156v78.5
		H142.4z"/>
	<path class="st2" d="M257.8,282.2v77.1c0,8.5-0.6,14.6-1.7,18.2c-1.1,3.6-3,6.8-5.7,9.7c-3.7,3.9-8.2,6.9-13.5,8.8
		c-5.3,1.9-11.4,2.9-18.3,2.9c-11.9,0-21.3-2.7-27.9-8.2c-6.7-5.4-10.2-13.1-10.5-23.1h15.2v1c0,5.9,2,10.4,6.1,13.6
		c4.1,3.2,9.8,4.8,17.3,4.8c5.4,0,10-0.9,13.8-2.6c3.8-1.7,6.7-4.3,8.7-7.8c1.2-1.9,2.1-4.2,2.6-6.8c0.5-2.6,0.8-6.3,0.8-11.1v-6.2
		v-7c-3,5.6-7,9.9-12,12.9c-4.9,3-10.5,4.5-16.6,4.5c-11.3,0-20.4-3.8-27.3-11.5c-6.9-7.7-10.4-17.8-10.4-30.5
		c0-12.8,3.4-23,10.1-30.5c6.7-7.5,15.7-11.3,27-11.3c6.5,0,12.3,1.5,17.2,4.4c4.9,2.9,8.8,7.3,11.7,13v-14.6H257.8z M244.7,321.7
		c0-8.8-2.4-15.9-7.2-21.3c-4.8-5.4-11.2-8.1-19-8.1c-8.1,0-14.4,2.5-18.9,7.5c-4.5,5-6.8,11.9-6.8,20.9c0,9.5,2.3,16.8,6.8,22
		c4.6,5.1,11,7.7,19.4,7.7c8,0,14.3-2.5,18.9-7.6C242.4,337.7,244.7,330.7,244.7,321.7z"/>
	<path class="st2" d="M282.6,244.4c0-2.7,1-5,2.9-6.9c1.9-1.9,4.3-2.9,7-2.9c2.7,0,5,1,6.9,2.9c1.9,1.9,2.9,4.3,2.9,7
		c0,2.7-0.9,5-2.8,6.9c-1.9,1.9-4.2,2.8-7,2.8s-5.1-0.9-7-2.8C283.5,249.6,282.6,247.2,282.6,244.4z M285.7,360.8v-78.5h13.6v78.5
		H285.7z"/>
	<path class="st2" d="M329.8,293.3h-14.5v-11.1h14.5v-31.7h13.8v31.7h14.5v11.1h-14.5v67.5h-13.8V293.3z"/>
	<path class="st2" d="M446.8,282.2v78.5h-13.1v-14.2c-3.2,5.7-7.2,10.1-12.1,13.1c-4.9,3-10.4,4.5-16.5,4.5
		c-11.3,0-20.4-3.9-27.3-11.6c-6.9-7.8-10.4-18-10.4-30.8c0-12.9,3.4-23.2,10.1-30.8c6.7-7.6,15.7-11.5,27-11.5
		c6.6,0,12.3,1.5,17.2,4.4c4.9,2.9,8.8,7.3,11.8,13.2v-14.8H446.8z M433.7,322.2c0-8.9-2.4-16-7.3-21.4c-4.9-5.4-11.2-8.1-19-8.1
		c-8.1,0-14.4,2.5-18.9,7.5c-4.5,5-6.8,11.9-6.8,20.9c0,9.5,2.3,16.8,6.8,22c4.6,5.1,11,7.7,19.4,7.7c8,0,14.3-2.5,18.9-7.5
		C431.4,338.2,433.7,331.2,433.7,322.2z"/>
	<path class="st2" d="M474.4,360.8v-133h13.8v133H474.4z"/>
</g>
</svg>
