<?xml version="1.0" encoding="utf-8"?>
<!-- Generator: Adobe Illustrator 22.1.0, SVG Export Plug-In . SVG Version: 6.00 Build 0)  -->
<svg version="1.1" id="Layer_1" xmlns="http://www.w3.org/2000/svg" xmlns:xlink="http://www.w3.org/1999/xlink" x="0px" y="0px"
	 viewBox="0 0 1598.5 185.8" style="enable-background:new 0 0 1598.5 185.8;" xml:space="preserve">
<style type="text/css">
	.st0{fill:none;stroke:#DAB61D;stroke-width:4;}
</style>
<g>
	<path class="st0" d="M5.5,130.6l17.8-9.2c0.6,3.1,2.2,5.5,4.8,7.3c2.6,1.8,5.8,2.7,9.7,2.7c3.8,0,6.8-0.7,8.9-2.1
		c2.2-1.4,3.2-3.3,3.2-5.7c0-3.8-3.8-7.1-11.5-9.7c-2.4-0.8-4.3-1.5-5.7-2c-9.4-3.5-15.8-7.1-19.4-10.6c-3.6-3.6-5.4-8-5.4-13.2
		c0-7.8,3.1-14.1,9.2-18.9c6.1-4.8,14.2-7.2,24.2-7.2c7.1,0,13.3,1.4,18.6,4.3c5.2,2.9,9,6.9,11.4,12.2l-17,8.4
		c-0.9-3-2.5-5.2-4.8-6.8s-5.1-2.3-8.5-2.3c-3.4,0-6.2,0.7-8.3,2.1c-2.1,1.4-3.2,3.2-3.2,5.5c0,4,5.3,7.6,15.8,11
		c1.2,0.4,2.2,0.7,2.8,0.9c8.7,2.9,14.9,6.2,18.6,10c3.7,3.8,5.5,8.7,5.5,14.6c0,7.9-3.1,14.2-9.2,18.8c-6.1,4.7-14.4,7-24.8,7
		c-8.2,0-15.3-1.5-21.1-4.6C11.3,140.1,7.4,135.9,5.5,130.6z"/>
	<path class="st0" d="M186.2,105.1c0,12.2-4.2,22.4-12.5,30.5s-19,12.2-31.8,12.2c-12.9,0-23.6-4.1-32-12.2
		c-8.4-8.1-12.6-18.3-12.6-30.5c0-12.2,4.2-22.4,12.7-30.5c8.4-8.2,19.1-12.3,31.9-12.3c12.9,0,23.5,4,31.8,12.1
		C182.1,82.4,186.2,92.7,186.2,105.1z M162.7,104.9c0-6.5-1.9-11.7-5.7-15.5c-3.8-3.9-8.9-5.8-15.3-5.8c-6.4,0-11.4,1.9-15.2,5.8
		c-3.7,3.8-5.6,9-5.6,15.6c0,6.5,1.9,11.7,5.6,15.6c3.7,3.9,8.8,5.8,15.2,5.8c6.3,0,11.4-1.9,15.2-5.8S162.7,111.4,162.7,104.9z"/>
	<path class="st0" d="M217.9,144.6V18.7h23.1v125.9H217.9z"/>
	<path class="st0" d="M300.4,64.9v41.9c0,7,1.4,12.1,4.1,15.1c2.7,3,7.2,4.5,13.4,4.5c6.1,0,10.6-1.5,13.3-4.6
		c2.8-3.1,4.1-8.1,4.1-15.1V64.9h23.1v41.9c0,14-3.3,24.3-9.8,31c-6.6,6.6-16.7,9.9-30.5,9.9c-14,0-24.3-3.3-30.9-9.9
		c-6.6-6.6-9.9-16.9-9.9-31V64.9H300.4z"/>
	<path class="st0" d="M396.8,144.6V83.1h-11.1V64.9h11.1V38.5H420v26.5h11.1v18.1H420v61.6H396.8z"/>
	<path class="st0" d="M457.6,32.2c0-3.7,1.3-6.8,4-9.5c2.7-2.7,5.8-4,9.5-4c3.7,0,6.9,1.3,9.6,3.9c2.7,2.6,4,5.8,4,9.5
		s-1.3,6.9-4,9.6c-2.7,2.7-5.9,4-9.6,4c-3.7,0-6.8-1.4-9.5-4.1C458.9,39,457.6,35.8,457.6,32.2z M459.6,144.6V64.9h23.1v79.7H459.6z
		"/>
	<path class="st0" d="M603.2,105.1c0,12.2-4.2,22.4-12.5,30.5s-19,12.2-31.8,12.2c-12.9,0-23.6-4.1-32-12.2
		c-8.4-8.1-12.6-18.3-12.6-30.5c0-12.2,4.2-22.4,12.7-30.5c8.4-8.2,19.1-12.3,31.9-12.3c12.9,0,23.5,4,31.8,12.1
		C599,82.4,603.2,92.7,603.2,105.1z M579.7,104.9c0-6.5-1.9-11.7-5.7-15.5c-3.8-3.9-8.9-5.8-15.3-5.8c-6.4,0-11.4,1.9-15.2,5.8
		c-3.7,3.8-5.6,9-5.6,15.6c0,6.5,1.9,11.7,5.6,15.6c3.7,3.9,8.8,5.8,15.2,5.8c6.3,0,11.4-1.9,15.2-5.8S579.7,111.4,579.7,104.9z"/>
	<path class="st0" d="M634,144.6V64.9h22.7v12.5c4.2-5.2,8.6-9,13.4-11.5c4.8-2.5,10.1-3.7,16-3.7c6.2,0,11.4,1,15.5,3.1
		c4.2,2.1,7.5,5.3,9.9,9.5c1.2,2.2,2,4.7,2.6,7.5c0.5,2.8,0.8,7.2,0.8,13.1v2.5v46.5h-23.1v-39.4c0-9.8-1.1-16.3-3.4-19.4
		c-2.3-3.1-6.2-4.7-11.7-4.7c-3.2,0-6.1,0.7-8.8,2c-2.7,1.3-4.9,3.2-6.7,5.6c-1.4,1.9-2.4,4.1-3,6.5c-0.6,2.4-0.9,6.1-0.9,11.1v3.2
		v35.1H634z"/>
	<path class="st0" d="M742.3,130.6l17.8-9.2c0.6,3.1,2.2,5.5,4.8,7.3c2.6,1.8,5.8,2.7,9.7,2.7c3.8,0,6.8-0.7,8.9-2.1
		c2.2-1.4,3.2-3.3,3.2-5.7c0-3.8-3.8-7.1-11.5-9.7c-2.4-0.8-4.3-1.5-5.7-2c-9.4-3.5-15.8-7.1-19.4-10.6c-3.6-3.6-5.4-8-5.4-13.2
		c0-7.8,3.1-14.1,9.2-18.9c6.1-4.8,14.2-7.2,24.2-7.2c7.1,0,13.3,1.4,18.6,4.3c5.2,2.9,9,6.9,11.4,12.2l-17,8.4
		c-0.9-3-2.5-5.2-4.8-6.8s-5.1-2.3-8.5-2.3c-3.4,0-6.2,0.7-8.3,2.1c-2.1,1.4-3.2,3.2-3.2,5.5c0,4,5.3,7.6,15.8,11
		c1.2,0.4,2.2,0.7,2.8,0.9c8.7,2.9,14.9,6.2,18.6,10c3.7,3.8,5.5,8.7,5.5,14.6c0,7.9-3.1,14.2-9.2,18.8c-6.1,4.7-14.4,7-24.8,7
		c-8.2,0-15.3-1.5-21.1-4.6C748.1,140.1,744.2,135.9,742.3,130.6z"/>
	<path class="st0" d="M906.4,144.6V83.1h-11.1V64.9h11.1V38.5h23.1v26.5h11.1v18.1h-11.1v61.6H906.4z"/>
	<path class="st0" d="M1052.1,105.1c0,12.2-4.2,22.4-12.5,30.5c-8.4,8.1-19,12.2-31.8,12.2c-12.9,0-23.6-4.1-32-12.2
		c-8.4-8.1-12.6-18.3-12.6-30.5c0-12.2,4.2-22.4,12.7-30.5c8.4-8.2,19.1-12.3,31.9-12.3c12.9,0,23.5,4,31.8,12.1
		C1047.9,82.4,1052.1,92.7,1052.1,105.1z M1028.6,104.9c0-6.5-1.9-11.7-5.7-15.5c-3.8-3.9-8.9-5.8-15.3-5.8s-11.4,1.9-15.2,5.8
		c-3.7,3.8-5.6,9-5.6,15.6c0,6.5,1.9,11.7,5.6,15.6s8.8,5.8,15.2,5.8c6.3,0,11.4-1.9,15.2-5.8S1028.6,111.4,1028.6,104.9z"/>
	<path class="st0" d="M1226.9,143.3c0,8.4-0.5,14.3-1.5,17.7c-1,3.4-2.7,6.4-5.2,8.9c-3.5,3.7-7.9,6.5-13.3,8.3
		c-5.4,1.8-12,2.7-19.7,2.7c-12.9,0-22.8-2.1-29.5-6.2c-6.7-4.1-10.4-10.4-11-18.8h25.4c0.4,3.1,1.8,5.4,4.2,6.8
		c2.4,1.5,6,2.2,10.8,2.2c6.3,0,10.8-1.6,13.6-4.9s4.2-8.7,4.2-16.2v-11.4c-3.1,4.9-6.8,8.6-11.2,11c-4.4,2.4-9.5,3.6-15.5,3.6
		c-10.9,0-19.7-3.8-26.2-11.5c-6.6-7.7-9.8-18-9.8-31c0-13.2,3.2-23.5,9.6-31c6.4-7.5,15.2-11.2,26.5-11.2c5.8,0,10.9,1.3,15.5,4
		c4.5,2.7,8.3,6.6,11.3,11.8V64.9h21.8V143.3z M1206,104.7c0-7-1.8-12.6-5.4-16.6c-3.6-4.1-8.4-6.1-14.6-6.1c-6.3,0-11.3,2-14.9,6
		c-3.6,4-5.4,9.6-5.4,16.7c0,7.1,1.8,12.6,5.3,16.6c3.5,4,8.4,5.9,14.8,5.9s11.3-2,14.8-5.9C1204.2,117.3,1206,111.7,1206,104.7z"/>
	<path class="st0" d="M1285.4,85.4c2.3-7.7,5.7-13.5,10-17.4c4.4-3.8,9.8-5.8,16.2-5.8c1.5,0,3.9,0.3,7.2,0.8
		c0.6,0.1,1.1,0.2,1.5,0.2l-3.5,24.8c-1.7-0.7-3.5-1.2-5.2-1.6c-1.8-0.4-3.6-0.5-5.6-0.5c-7,0-12.1,1.8-15.2,5.4
		c-3.1,3.6-4.6,9.6-4.6,18.1v35.1H1263V64.9h22.8L1285.4,85.4z"/>
	<path class="st0" d="M1427.9,105.1c0,12.2-4.2,22.4-12.5,30.5c-8.4,8.1-19,12.2-31.8,12.2c-12.9,0-23.6-4.1-32-12.2
		c-8.4-8.1-12.6-18.3-12.6-30.5c0-12.2,4.2-22.4,12.7-30.5c8.4-8.2,19.1-12.3,31.9-12.3c12.9,0,23.5,4,31.8,12.1
		C1423.7,82.4,1427.9,92.7,1427.9,105.1z M1404.3,104.9c0-6.5-1.9-11.7-5.7-15.5c-3.8-3.9-8.9-5.8-15.3-5.8s-11.4,1.9-15.2,5.8
		c-3.7,3.8-5.6,9-5.6,15.6c0,6.5,1.9,11.7,5.6,15.6s8.8,5.8,15.2,5.8c6.3,0,11.4-1.9,15.2-5.8S1404.3,111.4,1404.3,104.9z"/>
	<path class="st0" d="M1527.8,64.9l11.5,41.3c0.2,0.8,0.5,2.2,0.9,4.3c0.4,2.1,1,6.3,1.9,12.7c0.5-2.5,1.1-5.1,1.8-7.9
		c0.7-2.8,1.6-5.8,2.7-9.3l12.4-41.1h25.2l-27.6,79.7h-24.7l-11.9-41.3c-0.2-0.8-0.6-2-1.1-3.7c-1.8-6.2-3.1-11.3-3.9-15.3
		c-0.7,3.7-1.4,7-2.1,10.1c-0.7,3-1.4,5.9-2.2,8.5l-12.3,41.6H1474l-27.6-79.7h25.3l12.2,39.5c1.1,3.6,2,6.8,2.7,9.7
		c0.7,2.9,1.3,5.9,1.8,8.9c0.4-3.3,0.9-6.5,1.5-9.5c0.6-3.1,1.3-6,2.1-8.9l10.6-39.7H1527.8z"/>
</g>
</svg>
